<?xml version="1.0" encoding="UTF-8"?>
<!-- Generator: visioncortex VTracer 0.6.0 -->
<svg version="1.1" xmlns="http://www.w3.org/2000/svg" width="512" height="512">
<path d="M0 0 C168.96 0 337.92 0 512 0 C512 168.96 512 337.92 512 512 C343.03999999999996 512 174.07999999999998 512 0 512 C0 343.03999999999996 0 174.07999999999998 0 0 Z " fill="#FEFEFE" transform="translate(0,0)"/>
<path d="M0 0 C33.81395348837208 0 33.81395348837208 0 42 8 C45.02253476532621 12.53380214798932 45.72242799740559 16.652026074761494 45 22 C43.62872441122951 28.182167446040296 41.21410300060322 31.449972425121246 36 35 C35.34 35 34.68000000000001 35 34 35 C36.988449187030454 41.47267796269267 40.39365988165551 47.24049689809442 44.64453125 52.96875 C46 55 46 55 46 57 C41.62966744175026 58.16694743701953 38.32946971802582 58.42658761087648 34 57 C29.304257616715603 52.337649562552315 25.746391628305986 45.991978397633034 23 40 C23 39.34000000000003 23 38.68000000000001 23 38 C19.039999999999992 38 15.079999999999998 38 11 38 C11 44.60000000000002 11 51.19999999999999 11 58 C7.3700000000000045 58 3.739999999999995 58 0 58 C0 38.860000000000014 0 19.72 0 0 Z " fill="#F87025" transform="translate(108,229)"/>
<path d="M0 0 C4.6200000000000045 -0.08250000000001023 9.240000000000009 -0.16499999999999204 14 -0.25 C16.161757812500014 -0.3046240234374977 16.161757812500014 -0.3046240234374977 18.3671875 -0.3603515625 C25.734881692858067 -0.4239368965697565 30.81934477563283 -0.1501872625714782 37 4 C41.40168998391857 8.334121709121916 43.1670951792388 11.597080216209974 43.3125 17.75 C43.26196419053434 23.03099208916234 42.69408863297937 26.006390667049345 39 30 C33.0309112726772 35.50992805599026 27.99447916883625 36.29382377687847 20.1875 36.125 C17.485625 36.08375000000001 14.783749999999998 36.04250000000002 12 36 C12 42.26999999999998 12 48.54000000000002 12 55 C8.039999999999992 55 4.0800000000000125 55 0 55 C0 36.85000000000002 0 18.69999999999999 0 0 Z " fill="#0B0A5D" transform="translate(192,232)"/>
<path d="M0 0 C2.7751764873913203 1.484807802171133 4.218000396871105 3.3245519008685847 5.83984375 5.984375 C6.3771411132812545 6.852075195312494 6.3771411132812545 6.852075195312494 6.92529296875 7.7373046875 C8.151011957337175 10.748921764637316 8.064671516517649 13.25332068305869 8.03515625 16.5 C8.028710937500023 17.750390625000023 8.022265624999989 19.00078124999999 8.015625 20.2890625 C7.998867187499968 21.59101562500001 7.982109374999993 22.892968750000023 7.96484375 24.234375 C7.955820312500009 25.55179687499998 7.946796875000018 26.869218750000016 7.9375 28.2265625 C7.9139290788626795 31.479349616948298 7.8810239734471565 34.73177088957249 7.83984375 37.984375 C4.2098437500000045 37.984375 0.5798437500000091 37.984375 -3.16015625 37.984375 C-3.16015625 36.66437500000001 -3.16015625 35.344375000000014 -3.16015625 33.984375 C-4.552343749999977 34.943437500000016 -4.552343749999977 34.943437500000016 -5.97265625 35.921875 C-11.531207343076801 39.518584530814394 -16.69148872687947 39.65067551740299 -23.16015625 38.984375 C-27.59327974849549 36.84697617036824 -30.28546271381481 34.566959199563826 -32.16015625 29.984375 C-32.75569819795612 25.881752691857855 -33.09041993085526 23.50848625070938 -30.91796875 19.94921875 C-28.441557761403146 16.949188522520785 -26.91021511364181 15.234394621213937 -23.16015625 13.984375 C-20.87010762613272 13.888721863376531 -18.577196550893063 13.85452924883532 -16.28515625 13.859375 C-15.070859374999998 13.856796874999986 -13.856562499999995 13.854218749999973 -12.60546875 13.8515625 C-9.648965301977398 13.965532020672072 -7.028238097382882 14.29734398712884 -4.16015625 14.984375 C-5.444479636004644 11.48732370948892 -5.444479636004644 11.48732370948892 -7.16015625 7.984375 C-12.355714567140865 6.252522227619721 -16.60101508675052 6.291423371889124 -21.53515625 8.484375 C-22.40140624999998 8.979375000000005 -23.267656250000016 9.474375000000009 -24.16015625 9.984375 C-24.820156250000025 9.984375 -25.480156249999993 9.984375 -26.16015625 9.984375 C-27.41680602800301 7.078372388368024 -28.16015625 5.188329156232896 -28.16015625 1.984375 C-19.156514425991816 -3.108594112570273 -9.710449391144891 -3.722631592988648 0 0 Z " fill="#08085B" transform="translate(292.16015625,248.015625)"/>
<path d="M0 0 C4.652019377203146 1.7762255803866651 7.859371094374183 3.665860150892911 10.063720703125 8.1767578125 C11.173565765066996 11.523367537740512 11.242715022898722 14.27282988114672 11.23046875 17.796875 C11.228535156250018 19.084648437499993 11.22660156249998 20.372421874999986 11.224609375 21.69921875 C11.21840576171877 22.363569335937484 11.212202148437484 23.027919921875025 11.205810546875 23.71240234375 C11.187431593373617 25.757612289386316 11.185301930769526 27.80237192565238 11.185546875 29.84765625 C11.140266121908098 39.8597338780919 11.140266121908098 39.8597338780919 10 41 C8.147124984520417 41.07226501620437 6.291661224320251 41.083812197980706 4.4375 41.0625 C3.4255859374999886 41.05347656250001 2.4136718749999773 41.04445312500002 1.37109375 41.03515625 C0.19740234375001364 41.01775390624999 0.19740234375001364 41.01775390624999 -1 41 C-1.0093457031250068 40.16750732421872 -1.0186914062500136 39.33501464843749 -1.0283203125 38.477294921875 C-1.0723636576537388 35.38497711482955 -1.1339877462052073 32.29365053713519 -1.20751953125 29.201904296875 C-1.2495864851094325 27.2071086859886 -1.2713786414007018 25.211919183288217 -1.29296875 23.216796875 C-1.3251953125 21.96318359374999 -1.357421875 20.709570312499977 -1.390625 19.41796875 C-1.4115722656250114 18.26063232421876 -1.4325195312500227 17.103295898437523 -1.4541015625 15.910888671875 C-1.7363840022147201 12.926312083053801 -1.7363840022147201 12.926312083053801 -3.8193359375 11.126220703125 C-7.055627303243455 9.454813171757479 -9.418835752958387 9.552354469119791 -13 10 C-15.821104327677176 12.131304523417555 -16.87260785102569 13.33705946088321 -17.5458984375 16.8408203125 C-17.56684570312501 17.90913085937501 -17.587792968750023 18.977441406250023 -17.609375 20.078125 C-17.6416015625 21.23828125 -17.673828125 22.3984375 -17.70703125 23.59375 C-17.728300781250027 25.403593750000027 -17.728300781250027 25.403593750000027 -17.75 27.25 C-17.779648437499986 28.472031249999986 -17.809296874999973 29.694062499999973 -17.83984375 30.953125 C-17.910514127675924 33.96839444750498 -17.957523966336225 36.984201609871434 -18 40 C-21.95999999999998 40 -25.920000000000016 40 -30 40 C-30 27.129999999999995 -30 14.259999999999991 -30 1 C-26.370000000000005 1 -22.74000000000001 1 -19 1 C-18.670000000000016 2.6500000000000057 -18.339999999999975 4.300000000000011 -18 6 C-17.051249999999982 5.195625000000007 -16.10250000000002 4.391250000000014 -15.125 3.5625 C-10.296643478926399 -0.5311066156928348 -6.223735684502799 -0.544935382514069 0 0 Z " fill="#0B0B60" transform="translate(338,246)"/>
<path d="M0 0 C3.6299999999999955 0 7.259999999999991 0 11 0 C11 3.6299999999999955 11 7.259999999999991 11 11 C13.970000000000027 11 16.939999999999998 11 20 11 C20 13.639999999999986 20 16.28 20 19 C17.029999999999973 19 14.060000000000002 19 11 19 C11.140402132227905 22.291981908832724 11.28706875077853 25.583474457332727 11.4375 28.875 C11.476816406250009 29.812148437500014 11.516132812500018 30.749296875000027 11.556640625 31.71484375 C11.598535156250023 32.61074218750002 11.640429687499989 33.50664062499999 11.68359375 34.4296875 C11.720251464843727 35.25710449218752 11.756909179687511 36.08452148437499 11.794677734375 36.93701171875 C11.882383272509458 39.06179428686403 11.882383272509458 39.06179428686403 13 41 C15.639999999999986 41 18.279999999999973 41 21 41 C22.76462683069559 44.0880969537173 23 45.23312135665782 23 49 C18.01928857735993 51.98603802316552 12.626760037748795 51.631182384535464 7 51 C3.2747537500934527 48.91386210005237 1.5785623595198786 46.90119339259411 0 43 C-0.22705078125 40.3427734375 -0.22705078125 40.3427734375 -0.1953125 37.359375 C-0.18886718750002274 36.28945312500002 -0.18242187499998863 35.21953124999999 -0.17578125 34.1171875 C-0.159023437500025 33.00601562500003 -0.14226562499999318 31.894843750000007 -0.125 30.75 C-0.1159765625000091 29.623359375000007 -0.10695312500001819 28.496718750000014 -0.09765625 27.3359375 C-0.07410657925498754 24.557076352090917 -0.04121679523848343 21.778646103616154 0 19 C-1.6499999999999773 19 -3.3000000000000114 19 -5 19 C-5 16.360000000000014 -5 13.719999999999999 -5 11 C-3.3500000000000227 11 -1.6999999999999886 11 0 11 C0 7.3700000000000045 0 3.740000000000009 0 0 Z " fill="#08ADED" transform="translate(379,236)"/>
<path d="M0 0 C3.6299999999999955 0 7.259999999999991 0 11 0 C11 18.150000000000006 11 36.30000000000001 11 55 C7.3700000000000045 55 3.740000000000009 55 0 55 C0 36.85000000000002 0 18.69999999999999 0 0 Z " fill="#08085B" transform="translate(242,232)"/>
<path d="M0 0 C3.6299999999999955 0 7.259999999999991 0 11 0 C11 17.819999999999993 11 35.639999999999986 11 54 C7.3700000000000045 54 3.740000000000009 54 0 54 C0 36.18000000000001 0 18.360000000000014 0 0 Z " fill="#07ADEE" transform="translate(357,232)"/>
<path d="M0 0 C3.6299999999999955 0 7.259999999999991 0 11 0 C11 13.199999999999989 11 26.399999999999977 11 40 C7.3700000000000045 40 3.740000000000009 40 0 40 C0 26.80000000000001 0 13.600000000000023 0 0 Z " fill="#F76C2C" transform="translate(161,246)"/>
<path d="M0 0 C1.2258984375000068 -0.01417968750001819 2.4517968750000136 -0.028359374999979536 3.71484375 -0.04296875 C6.818938124984697 0.1707320296080752 8.476125506249332 0.5475181781480387 11.0625 2.1875 C11.0625 4.167500000000018 11.0625 6.1474999999999795 11.0625 8.1875 C10.567499999999995 8.02249999999998 10.072499999999991 7.857500000000016 9.5625 7.6875 C4.6691035878431535 6.708820717568642 0.3410806227770422 6.3351129181486385 -3.9375 9.1875 C-4.1876587276988175 12.771072413125125 -4.1876587276988175 12.771072413125125 -3.9375 16.1875 C-1.055386979190871 17.14820434026967 0.7610004389185292 17.293318834218553 3.75 17.25 C4.558242187500014 17.24097656250001 5.366484375000027 17.231953125000018 6.19921875 17.22265625 C6.814101562500014 17.211054687499995 7.428984375000027 17.19945312499999 8.0625 17.1875 C8.0625 17.847500000000025 8.0625 18.507499999999993 8.0625 19.1875 C7.072499999999991 19.517499999999984 6.082499999999982 19.847500000000025 5.0625 20.1875 C5.392499999999984 21.507499999999993 5.722500000000025 22.827499999999986 6.0625 24.1875 C2.1135066285210087 26.161996685739496 -2.6334010392741902 25.62520497905689 -6.9375 25.1875 C-11.37062349849549 23.050101170368237 -14.062806463814809 20.770084199563826 -15.9375 16.1875 C-16.53304194795612 12.084877691857855 -16.867763680855262 9.711611250709382 -14.6953125 6.15234375 C-10.227972934184208 0.7404174600689544 -7.0330259118966865 0.03689940142652404 0 0 Z " fill="#050458" transform="translate(275.9375,261.8125)"/>
<path d="M0 0 C2.701875000000001 -0.08250000000001023 5.403750000000002 -0.16499999999999204 8.1875 -0.25 C9.02949951171874 -0.28641601562500796 9.871499023437508 -0.3228320312499875 10.739013671875 -0.3603515625 C14.557782729044305 -0.4166367595865381 16.617176157183195 -0.2162062117462824 20.015625 1.703125 C22.92883363974812 5.075106653881676 22.641885237296833 7.3665886022861 22.43359375 11.65234375 C22 14 22 14 20.125 16.5625 C16.041299581648417 19.325003224179 12.664510244749408 19.115863701208525 7.875 19.0625 C5.2762500000000045 19.041875000000005 2.677499999999995 19.02125000000001 0 19 C0 12.72999999999999 0 6.460000000000008 0 0 Z " fill="#FEFAF6" transform="translate(119,239)"/>
<path d="M0 0 C13.15334773218143 -0.4917139339133314 13.15334773218143 -0.4917139339133314 16.92578125 1.69921875 C19.35833744797378 4.397477884852265 19.629450307738466 5.486435248724547 19.5 9.0625 C19.489687500000002 9.919726562499989 19.479375000000005 10.776953125000006 19.46875 11.66015625 C19 14 19 14 17.98046875 15.796875 C14.793239045342688 17.73310132945653 11.41860184406633 17.309393361764705 7.8125 17.1875 C5.234375 17.125625000000014 2.65625 17.063750000000027 0 17 C0 11.389999999999986 0 5.780000000000001 0 0 Z " fill="#F8F8FB" transform="translate(204,241)"/>
<path d="M0 0 C9.569999999999993 0 19.14 0 29 0 C29 0.3300000000000125 29 0.6599999999999966 29 1 C20.090000000000003 1 11.180000000000007 1 2 1 C2 19.150000000000006 2 37.30000000000001 2 56 C4.640000000000001 56 7.280000000000001 56 10 56 C10 50.06 10 44.120000000000005 10 38 C10.329999999999998 38 10.659999999999997 38 11 38 C11 44.60000000000002 11 51.19999999999999 11 58 C7.3700000000000045 58 3.739999999999995 58 0 58 C0 38.860000000000014 0 19.72 0 0 Z " fill="#EE8852" transform="translate(108,229)"/>
<path d="M0 0 C3 1.1875 3 1.1875 5 3 C5.6875 5.4375 5.6875 5.4375 5 8 C1.8045905559740731 10.883662181194154 -0.3541097373443449 11.910911687909561 -4.625 12.5 C-8 12 -8 12 -10.4375 10.3125 C-12 8 -12 8 -12.5 5.4375 C-12 3 -12 3 -10.5 1.1875 C-6.993560077978941 -0.47805896296000583 -3.7727540402910336 -0.5453684058242629 0 0 Z " fill="#EFEFF8" transform="translate(283,268)"/>
<path d="M0 0 C0.5774999999999864 0.6187500000000057 1.1550000000000011 1.2375000000000114 1.75 1.875 C4.0805299253570695 4.281102122624873 4.0805299253570695 4.281102122624873 8 6 C7.340000000000003 9.300000000000011 6.680000000000007 12.599999999999994 6 16 C2.3700000000000045 16 -1.259999999999991 16 -5 16 C-5.309374999999989 14.906875000000014 -5.618750000000006 13.813749999999999 -5.9375 12.6875 C-6.583378966472026 10.445920057538245 -7.262311700121387 8.21306489963581 -8 6 C-6.824375000000003 5.876249999999999 -6.824375000000003 5.876249999999999 -5.625 5.75 C-2.863194875273905 5.277856971727488 -2.863194875273905 5.277856971727488 -1.75 3 C-1.5024999999999977 2.3400000000000034 -1.2549999999999955 1.6800000000000068 -1 1 C-0.6699999999999875 0.6699999999999875 -0.3400000000000034 0.3400000000000034 0 0 Z " fill="#F7872D" transform="translate(166,224)"/>
<path d="M0 0 C0.660000000000025 0 1.3199999999999932 0 2 0 C2 7.920000000000016 2 15.839999999999975 2 24 C4.970000000000027 24 7.939999999999998 24 11 24 C11 24.660000000000025 11 25.319999999999993 11 26 C7.3700000000000045 26 3.740000000000009 26 0 26 C0 17.420000000000016 0 8.839999999999975 0 0 Z " fill="#34366F" transform="translate(337,261)"/>
<path d="M0 0 C0.9900000000000091 1.3199999999999932 1.9799999999999898 2.6399999999999864 3 4 C1.3499999999999943 4 -0.30000000000001137 4 -2 4 C-2 4.659999999999997 -2 5.319999999999993 -2 6 C-2.990000000000009 6.4950000000000045 -2.990000000000009 6.4950000000000045 -4 7 C-4.990000000000009 8.485000000000014 -4.990000000000009 8.485000000000014 -6 10 C-6.659999999999997 8.680000000000007 -7.319999999999993 7.360000000000014 -8 6 C-6.824375000000003 5.876249999999999 -6.824375000000003 5.876249999999999 -5.625 5.75 C-2.863194875273905 5.277856971727488 -2.863194875273905 5.277856971727488 -1.75 3 C-1.5024999999999977 2.3400000000000034 -1.2549999999999955 1.6800000000000068 -1 1 C-0.6699999999999875 0.6699999999999875 -0.3400000000000034 0.3400000000000034 0 0 Z " fill="#EA9B49" transform="translate(166,224)"/>
<path d="M0 0 C1.3199999999999932 0 2.6399999999999864 0 4 0 C3.125 5.75 3.125 5.75 2 8 C1.3400000000000034 8 0.6800000000000068 8 0 8 C0 5.360000000000014 0 2.719999999999999 0 0 Z " fill="#FC831A" transform="translate(168,230)"/>
</svg>
